# AST/ASF file generated using VICON BodyLanguage
# -----------------------------------------------
:version 1.10
:name VICON
:units
  mass 1.0
  length 0.45
  angle deg
:documentation
   .ast/.asf automatically generated from VICON data using
   VICON BodyBuilder and BodyLanguage model FoxedUp or BRILLIANT.MOD
:root
   order TX TY TZ RX RY RZ
   axis XYZ
   position 0 0 0  
   orientation 0 0 0 
:bonedata
  begin
     id 1 
     name lhipjoint
     direction 0.621036 -0.695554 0.361275 
     length 2.46325 
     axis 0 0 0  XYZ
  end
  begin
     id 2 
     name lfemur
     direction 0.34202 -0.939693 0  
     length 6.54784  
     axis 0 0 20  XYZ
    dof rx ry rz
    limits (-160.0 20.0)
           (-70.0 70.0)
           (-60.0 70.0)
  end
  begin
     id 3 
     name ltibia
     direction 0.34202 -0.939693 0   
     length 7.84737   
     axis 0 0 20   XYZ
    dof rx
    limits (-10.0 170.0)
  end
  begin
     id 4 
     name lfoot
     direction 0.0790693 -0.217241 0.97291   
     length 2.59747   
     axis -90 7.62852e-016 20   XYZ
    dof rx rz
    limits (-45.0 90.0)
           (-70.0 20.0)
  end
  begin
     id 5 
     name ltoes
     direction 1.53572e-011 -4.21898e-011 1   
     length 1.29919   
     axis -90 7.62852e-016 20   XYZ
    dof rx
    limits (-90.0 20.0)
  end
  begin
     id 6 
     name rhipjoint
     direction -0.602353 -0.708375 0.367935   
     length 2.41867  
     axis 0 0 0  XYZ 
  end
  begin
     id 7 
     name rfemur
     direction -0.34202 -0.939693 0   
     length 6.92065   
     axis 0 0 -20   XYZ
    dof rx ry rz
    limits (-160.0 20.0)
           (-70.0 70.0)
           (-70.0 60.0)
  end
  begin
     id 8 
     name rtibia
     direction -0.34202 -0.939693 0   
     length 7.88883   
     axis 0 0 -20   XYZ
    dof rx
    limits (-10.0 170.0)
 end
 begin
     id 9 
     name rfoot
     direction -0.0768692 -0.211196 0.974416   
     length 2.43714  
     axis -90 -7.62852e-016 -20   XYZ
    dof rx rz
    limits (-45.0 90.0)
           (-20.0 70.0)
  end
  begin
     id 10 
     name rtoes
     direction -1.53575e-011 -4.21933e-011 1   
     length 1.22113   
     axis -90 -7.62852e-016 -20   XYZ
    dof rx
    limits (-90.0 20.0)
  end
  begin
     id 11 
     name lowerback
     direction 0.0197937 0.98943 -0.143655   
     length 2.16931   
     axis 0 0 0   XYZ
    dof rx ry rz
    limits (-20.0 45.0)
           (-30.0 30.0)
           (-30.0 30.0)
  end
  begin
     id 12 
     name upperback
     direction -0.00183968 0.999975 0.00684288   
     length 2.17221   
     axis 0 0 0   XYZ
    dof rx ry rz
    limits (-20.0 45.0)
           (-30.0 30.0)
           (-30.0 30.0)
  end
  begin
     id 13 
     name thorax
     direction -0.00950244 0.997208 0.0740685   
     length 2.22549   
     axis 0 0 0   XYZ
    dof rx ry rz
    limits (-20.0 45.0)
           (-30.0 30.0)
           (-30.0 30.0)
  end
  begin
     id 14 
     name lowerneck
     direction 0.0218238 0.996215 0.0841425   
     length 1.77269   
     axis 0 0 0   XYZ
    dof rx ry rz
    limits (-20.0 45.0)
           (-30.0 30.0)
           (-30.0 30.0)
  end
  begin
     id 15 
     name upperneck
     direction -0.00430652 0.994214 -0.107332   
     length 1.76534   
     axis 0 0 0   XYZ
    dof rx ry rz
    limits (-20.0 45.0)
           (-30.0 30.0)
           (-30.0 30.0)
  end
  begin
     id 16
     name head
     direction -0.00328946 0.998959 -0.0454998  
     length 1.82634  
     axis 0 0 0   XYZ
    dof rx ry rz
    limits (-20.0 45.0)
           (-30.0 30.0)
           (-30.0 30.0)
  end
  begin
     id 17 
     name lclavicle
     direction 0.970962 0.239191 0.00450212  
     length 3.84872  
     axis 0 0 0   XYZ
    dof ry rz
    limits (-20.0 10.0)
           (0.0 20.0)
  end
  begin
     id 18 
     name lhumerus
     direction 1 -4.48966e-011 5.74696e-028   
     length 5.22771   
     axis 180 -30 -90   XYZ
    dof rx ry rz
    limits (-60.0 90.0)
           (-90.0 90.0)
           (-90.0 90.0)
  end
  begin
     id 19
     name lradius
     direction 1 -4.4896e-011 4.25109e-027   
     length 3.45251   
     axis 180 -30 -90   XYZ
    dof rx
    limits (-10.0 170.0)
  end
  begin
     id 20
     name lwrist
     direction 1 -4.48971e-011 1.15382e-027   
     length 1.72626   
     axis -5.52449e-016 90 90   XYZ
    dof ry
    limits (-180.0 0.0)
 end
  begin
     id 21 
     name lhand
     direction 1 -4.49034e-011 2.30765e-027   
     length 0.552119   
     axis -1.47248e-015 90 90   XYZ
    dof rx rz
    limits (-90.0 90.0)
           (-45.0 45.0)
  end
  begin
     id 22 
     name lfingers
     direction 1 -4.48951e-011 4.61529e-027   
     length 0.445133   
     axis -2.94495e-015 90 90   XYZ
    dof rx
    limits (0.0 90.0)
  end
  begin
     id 23
     name lthumb
     direction 0.707107 -6.34991e-011 0.707107   
     length 0.639124   
     axis -90 45 2.85299e-015   XYZ
    dof rx rz
    limits (-45.0 45.0)
           (-45.0 45.0)
  end
  begin
     id 24 
     name rclavicle
     direction -0.97424 0.222511 -0.0366699   
     length 3.73439  
     axis 0 0 0   XYZ 
    dof ry rz
    limits (-10.0 20.0)
           (-20.0 0.0)
  end
  begin
     id 25 
     name rhumerus
     direction -1 -4.48956e-011 -4.97258e-028  
     length 5.2398   
     axis 180 30 90   XYZ
    dof rx ry rz
    limits (-90.0 60.0)
           (-90.0 90.0)
           (-90.0 90.0)
  end
  begin
     id 26 
     name rradius
     direction -1 -4.4897e-011 -1.72611e-027   
     length 3.48042   
     axis 180 30 90   XYZ
    dof rx
    limits (-10.0 170.0)
  end
  begin
     id 27 
     name rwrist
     direction -1 -4.48976e-011 1.15382e-027   
     length 1.74021   
     axis -5.52449e-016 -90 -90   XYZ
    dof ry
    limits (-180.0 0.0)
  end
  begin
     id 28
     name rhand
     direction -1 -4.48963e-011 2.30765e-027   
     length 0.618713   
     axis -1.47248e-015 -90 -90   XYZ
    dof rx rz
    limits (-90.0 90.0)
           (-45.0 45.0)
  end
  begin
     id 29
     name rfingers
     direction -1 -4.4888e-011 4.61529e-027   
     length 0.498823   
     axis -2.94495e-015 -90 -90   XYZ
    dof rx
    limits (0.0 90.0)
  end
  begin
     id 30
     name rthumb
     direction -0.707107 -6.34968e-011 0.707107   
     length 0.716213   
     axis -90 -45 -2.85299e-015   XYZ
    dof rx rz
    limits (-45.0 45.0)
           (-45.0 45.0)
  end
:hierarchy
  begin
    root lhipjoint rhipjoint lowerback
    lhipjoint lfemur
    lfemur ltibia
    ltibia lfoot
    lfoot ltoes
    rhipjoint rfemur
    rfemur rtibia
    rtibia rfoot
    rfoot rtoes
    lowerback upperback
    upperback thorax
    thorax lowerneck lclavicle rclavicle
    lowerneck upperneck
    upperneck head
    lclavicle lhumerus
    lhumerus lradius
    lradius lwrist
    lwrist lhand lthumb
    lhand lfingers
    rclavicle rhumerus
    rhumerus rradius
    rradius rwrist
    rwrist rhand rthumb
    rhand rfingers
  end

#!OML:ASF G:\JayActor3\Patient Classification 1\Patient 1\Session 5\male.ASF
:FULLY-SPECIFIED
:DEGREES
106
root -38.6414 16.976 -5.2956 -115.728 86.6873 -113.768
lowerback 4.96782 -0.194009 1.78275
upperback 2.73362 -0.132033 -0.211122
thorax 0.0185937 -0.0239105 -1.20994
lowerneck -6.80186 -0.0963018 2.47305
upperneck 2.72366 -0.387451 1.29085
head 2.01482 -0.121613 -0.0293034
rclavicle -2.03754e-015 -9.93923e-015
rhumerus -29.6402 -7.03303 -86.5931
rradius 25.4234
rwrist 2.12476
rhand -17.746 -6.81113
rfingers 7.12502
rthumb 8.51542 -36.6194
lclavicle -2.03754e-015 -9.93923e-015
lhumerus -29.818 0.779689 85.8315
lradius 24.5115
lwrist 18.2207
lhand -16.7397 11.8898
lfingers 7.12502
lthumb 9.48655 41.6563
rfemur -8.62488 1.8706 24.1231
rtibia 36.0624
rfoot -28.2695 -16.1496
rtoes 9.35793
lfemur -0.077789 7.45897 -15.4578
ltibia 21.1431
lfoot -17.2087 8.5181
ltoes -6.56505
107
root -38.6626 16.97 -5.29394 -115.358 86.7367 -113.451
lowerback 5.17063 -0.176269 1.7511
upperback 2.81413 -0.103234 -0.241117
thorax -0.0105994 -0.00786155 -1.22426
lowerneck -6.86964 -0.108807 2.49036
upperneck 2.63189 -0.404356 1.26253
head 1.99676 -0.13138 -0.0418643
rclavicle 3.77691e-015 1.59028e-015
rhumerus -29.4739 -6.84411 -86.6982
rradius 25.4999
rwrist 2.03551
rhand -17.6609 -6.88939
rfingers 7.12502
rthumb 8.59757 -36.6943
lclavicle 3.77691e-015 1.59028e-015
lhumerus -29.6672 0.596521 85.8209
lradius 24.6601
lwrist 18.3462
lhand -16.6835 11.8212
lfingers 7.12502
lthumb 9.54076 41.5852
rfemur -8.95473 1.86777 24.0845
rtibia 36.3848
rfoot -28.2536 -16.1975
rtoes 9.16204
lfemur -0.463219 7.55101 -15.4989
ltibia 21.5978
lfoot -17.315 8.46524
ltoes -6.59756
108
root -38.6851 16.963 -5.29196 -115.125 86.7871 -113.283
lowerback 5.38562 -0.1629 1.71415
upperback 2.89277 -0.0802833 -0.273799
thorax -0.0486007 0.00519094 -1.23819
lowerneck -6.89297 -0.143031 2.4483
upperneck 2.52085 -0.445694 1.2963
head 1.96431 -0.152634 -0.0255019
rclavicle 3.72721e-015 5.1684e-015
rhumerus -29.3054 -6.63342 -86.812
rradius 25.598
rwrist 1.92552
rhand -17.5665 -6.97419
rfingers 7.12502
rthumb 8.68867 -36.7754
lclavicle 3.72721e-015 5.1684e-015
lhumerus -29.5219 0.393786 85.8066
lradius 24.83
lwrist 18.4888
lhand -16.6219 11.7655
lfingers 7.12502
lthumb 9.60016 41.5268
rfemur -9.31618 1.8489 24.0398
rtibia 36.7348
rfoot -28.2486 -16.232
rtoes 8.97749
lfemur -0.890754 7.63364 -15.5487
ltibia 22.0934
lfoot -17.4285 8.42284
ltoes -6.6699
109
root -38.7084 16.9546 -5.28983 -115.131 86.8348 -113.362
lowerback 5.60888 -0.157143 1.67193
upperback 2.97409 -0.0675122 -0.305532
thorax -0.088711 0.013201 -1.24776
lowerneck -6.90783 -0.173637 2.38378
upperneck 2.38969 -0.480369 1.35585
head 1.92393 -0.170312 0.00309184
rclavicle -2.48481e-016 -5.96354e-015
rhumerus -29.1327 -6.39591 -86.9299
rradius 25.7222
rwrist 1.79278
rhand -17.477 -7.05503
rfingers 7.12502
rthumb 8.77501 -36.8526
lclavicle -2.48481e-016 -5.96354e-015
lhumerus -29.3804 0.182435 85.7918
lradius 25.025
lwrist 18.6414
lhand -16.5659 11.7285
lfingers 7.12502
lthumb 9.65423 41.4873
rfemur -9.69993 1.80545 23.9881
rtibia 37.1114
rfoot -28.2607 -16.2372
rtoes 8.81883
lfemur -1.35825 7.69873 -15.6062
ltibia 22.6367
lfoot -17.5567 8.39022
ltoes -6.75897
110
root -38.733 16.9452 -5.2875 -115.715 86.8856 -114.031
lowerback 5.85461 -0.162049 1.61812
upperback 3.04685 -0.069317 -0.344713
thorax -0.150484 0.0136158 -1.25771
lowerneck -6.92294 -0.205336 2.31899
upperneck 2.25791 -0.516455 1.41978
head 1.88352 -0.188536 0.033029
rclavicle -2.5842e-015 2.78299e-015
rhumerus -28.9803 -6.13792 -87.0546
rradius 25.8859
rwrist 1.63659
rhand -17.4013 -7.11632
rfingers 7.12502
rthumb 8.84812 -36.9108
lclavicle -2.5842e-015 2.78299e-015
lhumerus -29.2589 -0.0658983 85.7797
lradius 25.2547
lwrist 18.8004
lhand -16.5554 11.7698
lfingers 7.12502
lthumb 9.66436 41.5281
rfemur -10.1154 1.72375 23.9143
rtibia 37.5166
rfoot -28.2699 -16.2384
rtoes 8.60698
lfemur -1.87434 7.72606 -15.6889
ltibia 23.2302
lfoot -17.7027 8.36686
ltoes -6.84554
